<svg width="24" height="24" viewBox="0 0 24 24" fill="none" xmlns="http://www.w3.org/2000/svg">
<path d="M3 11.9999C3 12.1988 3.07902 12.3896 3.21967 12.5303C3.36032 12.6709 3.55109 12.7499 3.75 12.7499H18.4397L12.9694 18.2193C12.8997 18.289 12.8444 18.3717 12.8067 18.4628C12.769 18.5538 12.7496 18.6514 12.7496 18.7499C12.7496 18.8485 12.769 18.9461 12.8067 19.0371C12.8444 19.1281 12.8997 19.2109 12.9694 19.2806C13.0391 19.3502 13.1218 19.4055 13.2128 19.4432C13.3039 19.4809 13.4015 19.5003 13.5 19.5003C13.5985 19.5003 13.6961 19.4809 13.7872 19.4432C13.8782 19.4055 13.9609 19.3502 14.0306 19.2806L20.7806 12.5306C20.8504 12.4609 20.9057 12.3782 20.9434 12.2871C20.9812 12.1961 21.0006 12.0985 21.0006 11.9999C21.0006 11.9014 20.9812 11.8038 20.9434 11.7127C20.9057 11.6217 20.8504 11.539 20.7806 11.4693L14.0306 4.7193C13.8899 4.57857 13.699 4.49951 13.5 4.49951C13.301 4.49951 13.1101 4.57857 12.9694 4.7193C12.8286 4.86003 12.7496 5.05091 12.7496 5.24993C12.7496 5.44895 12.8286 5.63982 12.9694 5.78055L18.4397 11.2499H3.75C3.55109 11.2499 3.36032 11.3289 3.21967 11.4696C3.07902 11.6103 3 11.801 3 11.9999Z" fill="#151515"/>
</svg>
