<svg width="20" height="20" viewBox="0 0 20 20" fill="none" xmlns="http://www.w3.org/2000/svg">
<g clip-path="url(#clip0_208_274)">
<path d="M10.0033 4.86499C7.16748 4.86499 4.87164 7.16332 4.87164 9.99666C4.87164 12.8325 7.16998 15.1283 10.0033 15.1283C12.8391 15.1283 15.135 12.83 15.135 9.99666C15.135 7.16082 12.8366 4.86499 10.0033 4.86499ZM10.0033 13.3275C8.16248 13.3275 6.67248 11.8367 6.67248 9.99666C6.67248 8.15666 8.16331 6.66582 10.0033 6.66582C11.8433 6.66582 13.3341 8.15666 13.3341 9.99666C13.335 11.8367 11.8441 13.3275 10.0033 13.3275Z" fill="#F5F5F5"/>
<path d="M14.1233 0.0635546C12.2833 -0.0222787 7.72578 -0.018112 5.88411 0.0635546C4.26578 0.139388 2.83828 0.530221 1.68745 1.68105C-0.235888 3.60439 0.00994524 6.19606 0.00994524 9.99689C0.00994524 13.8869 -0.206721 16.4186 1.68745 18.3127C3.61828 20.2427 6.24744 19.9902 10.0033 19.9902C13.8566 19.9902 15.1866 19.9927 16.5491 19.4652C18.4016 18.7461 19.7999 17.0902 19.9366 14.1161C20.0233 12.2752 20.0183 7.71855 19.9366 5.87689C19.7716 2.36606 17.8874 0.236888 14.1233 0.0635546ZM17.0358 17.0402C15.7749 18.3011 14.0258 18.1886 9.97911 18.1886C5.81245 18.1886 4.14161 18.2502 2.92245 17.0277C1.51828 15.6302 1.77245 13.3861 1.77245 9.98355C1.77245 5.37939 1.29995 2.06355 5.92078 1.82689C6.98245 1.78939 7.29495 1.77689 9.96745 1.77689L10.0049 1.80189C14.4458 1.80189 17.9299 1.33689 18.1391 5.95689C18.1866 7.01105 18.1974 7.32772 18.1974 9.99605C18.1966 14.1144 18.2749 15.7952 17.0358 17.0402Z" fill="#F5F5F5"/>
<path d="M15.3383 5.86171C16.0006 5.86171 16.5375 5.32483 16.5375 4.66255C16.5375 4.00026 16.0006 3.46338 15.3383 3.46338C14.676 3.46338 14.1392 4.00026 14.1392 4.66255C14.1392 5.32483 14.676 5.86171 15.3383 5.86171Z" fill="#F5F5F5"/>
</g>
<defs>
<clipPath id="clip0_208_274">
<rect width="20" height="20" fill="white"/>
</clipPath>
</defs>
</svg>
