<svg width="20" height="20" viewBox="0 0 20 20" fill="none" xmlns="http://www.w3.org/2000/svg">
<g clip-path="url(#clip0_208_284)">
<path d="M15.3359 0.527344H4.6641C2.38309 0.527344 0.527344 2.38309 0.527344 4.6641V15.3359C0.527344 17.6169 2.38309 19.4727 4.6641 19.4727H15.3359C17.6169 19.4727 19.4727 17.6169 19.4727 15.3359V4.6641C19.4727 2.38309 17.6169 0.527344 15.3359 0.527344ZM18.4961 15.3359C18.4961 17.0784 17.0784 18.4961 15.3359 18.4961H4.6641C2.92156 18.4961 1.50391 17.0784 1.50391 15.3359V4.6641C1.50391 2.92156 2.92156 1.50391 4.6641 1.50391H15.3359C17.0784 1.50391 18.4961 2.92156 18.4961 4.6641V15.3359ZM11.3448 9.10418L15.0303 4.51062C15.1991 4.30027 15.1654 3.99297 14.955 3.82418C14.7447 3.65547 14.4374 3.6891 14.2686 3.89949L10.7188 8.32391L7.16891 3.89949C7.07621 3.78398 6.93613 3.71676 6.78805 3.71676H3.91301C3.7252 3.71676 3.55402 3.82449 3.47277 3.99383C3.39152 4.16316 3.41461 4.3641 3.53215 4.51059L8.6552 10.8958L4.96965 15.4894C4.8009 15.6997 4.83461 16.007 5.04492 16.1758C5.13508 16.2481 5.24297 16.2832 5.35019 16.2832C5.49316 16.2832 5.63492 16.2207 5.73137 16.1005L9.28125 11.6761L12.8311 16.1005C12.9237 16.216 13.0638 16.2832 13.2119 16.2832H16.087H16.0877C16.3574 16.2832 16.576 16.0646 16.576 15.795C16.576 15.6705 16.5295 15.5569 16.4528 15.4707L11.3448 9.10418ZM13.4462 15.3067L4.93082 4.69332H6.55379L15.0692 15.3067H13.4462Z" fill="#F5F5F5"/>
</g>
<defs>
<clipPath id="clip0_208_284">
<rect width="20" height="20" fill="white"/>
</clipPath>
</defs>
</svg>
