<svg width="20" height="20" viewBox="0 0 20 20" fill="none" xmlns="http://www.w3.org/2000/svg">
<g clip-path="url(#clip0_337_5802)">
<path d="M3.51562 7.10938C2.22301 7.10938 1.17188 6.05824 1.17188 4.76562C1.17188 3.47301 2.22301 2.42188 3.51562 2.42188C4.80824 2.42188 5.85938 3.47301 5.85938 4.76562C5.85938 6.05824 4.80824 7.10938 3.51562 7.10938Z" fill="#EEBB0C"/>
<path d="M16.4844 7.10938C15.1918 7.10938 14.1406 6.05824 14.1406 4.76562C14.1406 3.47301 15.1918 2.42188 16.4844 2.42188C17.777 2.42188 18.8281 3.47301 18.8281 4.76562C18.8281 6.05824 17.777 7.10938 16.4844 7.10938Z" fill="#EEBB0C"/>
<path d="M10 5.85938C8.38465 5.85938 7.07031 4.54504 7.07031 2.92969C7.07031 1.31434 8.38465 0 10 0C11.6154 0 12.9297 1.31434 12.9297 2.92969C12.9297 4.54504 11.6154 5.85938 10 5.85938Z" fill="#EEBB0C"/>
<path d="M10.5859 5.91858V9.96092C10.5859 10.2848 10.3239 10.5469 10 10.5469C9.67613 10.5469 9.41406 10.2848 9.41406 9.96092V5.91858C7.43164 6.20596 5.89844 7.90018 5.89844 9.96092V13.4765C5.89844 13.8004 6.16051 14.0625 6.48438 14.0625H7.79703L8.24449 19.4633C8.26965 19.7665 8.52371 20 8.82812 20H11.1719C11.4763 20 11.7304 19.7665 11.7555 19.4633L12.203 14.0625H13.5156C13.8395 14.0625 14.1016 13.8004 14.1016 13.4765V9.96092C14.1016 7.90018 12.5684 6.20596 10.5859 5.91858Z" fill="#EEBB0C"/>
<path d="M4.6875 13.5547V10.0391C4.6875 9.16078 4.92383 8.34461 5.30512 7.61555C4.77898 7.30148 4.17164 7.10938 3.51562 7.10938C1.57699 7.10938 0 8.68637 0 10.625V13.5547C0 13.8786 0.26207 14.1406 0.585938 14.1406H1.22738L1.76066 19.4724C1.79043 19.7717 2.04277 20 2.34375 20H4.6875C4.98848 20 5.24082 19.7717 5.27059 19.4724L5.70367 15.1426C5.10543 14.8619 4.6875 14.2581 4.6875 13.5547Z" fill="#EEBB0C"/>
<path d="M20.0001 10.625C20.0001 8.68637 18.4231 7.10938 16.4844 7.10938C15.8284 7.10938 15.2211 7.30148 14.6949 7.61555C15.0762 8.34461 15.3126 9.16078 15.3126 10.0391V13.5547C15.3126 14.2581 14.8946 14.8619 14.2964 15.1426L14.7295 19.4724C14.7592 19.7717 15.0116 20 15.3126 20H17.6563C17.9573 20 18.2096 19.7717 18.2394 19.4724L18.7727 14.1406H19.4141C19.738 14.1406 20.0001 13.8786 20.0001 13.5547V10.625Z" fill="#EEBB0C"/>
</g>
<defs>
<clipPath id="clip0_337_5802">
<rect width="20" height="20" fill="white"/>
</clipPath>
</defs>
</svg>
