<svg width="20" height="20" viewBox="0 0 20 20" fill="none" xmlns="http://www.w3.org/2000/svg">
<g clip-path="url(#clip0_340_6043)">
<path d="M8.76622 0.628418C4.27926 0.628418 0.623535 4.27926 0.623535 8.76621C0.623535 13.2532 4.27926 16.9028 8.76622 16.9028C10.7842 16.9028 12.6292 16.1611 14.0529 14.9405L14.7632 15.6508L14.3206 16.0934C14.2033 16.2108 14.1373 16.37 14.1373 16.536C14.1373 16.702 14.2033 16.8612 14.3206 16.9786L16.1973 18.8565C16.6079 19.2674 17.1361 19.4668 17.6266 19.4446C18.117 19.4233 18.5546 19.2029 18.8773 18.881C19.2001 18.5591 19.4203 18.1231 19.4434 17.6327C19.4665 17.1422 19.2671 16.6131 18.8565 16.2022L16.9774 14.3218C16.9182 14.2627 16.8479 14.216 16.7704 14.1845C16.6929 14.153 16.6099 14.1373 16.5262 14.1384C16.3632 14.1407 16.2075 14.2065 16.0922 14.3218L15.6484 14.7656L14.938 14.0553C16.1603 12.6315 16.904 10.7855 16.904 8.76621C16.904 4.27926 13.2532 0.628418 8.76622 0.628418ZM10.0133 5.63262H12.5185C12.6011 5.63231 12.6829 5.64835 12.7593 5.67982C12.8357 5.71129 12.9051 5.75757 12.9635 5.81598C13.0219 5.8744 13.0682 5.9438 13.0997 6.02019C13.1312 6.09658 13.1472 6.17844 13.1469 6.26105V8.76621C13.1487 8.84959 13.1339 8.93249 13.1033 9.01006C13.0727 9.08762 13.0268 9.15829 12.9685 9.21791C12.9102 9.27752 12.8406 9.32489 12.7637 9.35723C12.6869 9.38958 12.6043 9.40623 12.5209 9.40623C12.4375 9.40623 12.355 9.38958 12.2781 9.35723C12.2012 9.32489 12.1316 9.27752 12.0733 9.21791C12.015 9.15829 11.9691 9.08762 11.9385 9.01006C11.9079 8.93249 11.8931 8.84959 11.8949 8.76621V7.771L9.20514 10.4571C8.96098 10.6998 8.56658 10.6998 8.32241 10.4571L7.51425 9.64773L5.45291 11.7091C4.86493 12.3394 3.93801 11.4176 4.56528 10.8263L7.07044 8.3224C7.31461 8.07975 7.70901 8.07975 7.95318 8.3224L8.76133 9.13545L11.0122 6.88459H10.0133C9.92991 6.88646 9.84699 6.87166 9.7694 6.84104C9.69182 6.81042 9.62113 6.76461 9.56149 6.7063C9.50186 6.64798 9.45447 6.57834 9.42212 6.50146C9.38977 6.42459 9.3731 6.34202 9.3731 6.25861C9.3731 6.1752 9.38977 6.09263 9.42212 6.01575C9.45447 5.93887 9.50186 5.86923 9.56149 5.81092C9.62113 5.7526 9.69182 5.70679 9.7694 5.67618C9.84699 5.64556 9.92991 5.63075 10.0133 5.63262Z" fill="#EEBB0C"/>
</g>
<defs>
<clipPath id="clip0_340_6043">
<rect width="20" height="20" fill="white"/>
</clipPath>
</defs>
</svg>
